# Blender v2.79 (sub 0) OBJ File: 'Crate1.blend'
# www.blender.org
mtllib Crate2.mtl
o Cube_Cube.002
v -1.000000 -1.000000 1.000000
v -1.000000 -1.000000 -1.000000
v 1.000000 -1.000000 -1.000000
v 1.000000 -1.000000 1.000000
v -1.000000 1.000000 1.000000
v -1.000000 1.000000 -1.000000
v 1.000000 1.000000 -1.000000
v 1.000000 1.000000 1.000000
vt 1.000000 0.000000
vt 0.000000 1.000000
vt 0.000000 0.000000
vt 1.000000 0.000000
vt 0.000000 1.000000
vt 0.000000 0.000000
vt 1.000000 0.000000
vt 0.000000 1.000000
vt 0.000000 0.000000
vt 1.000000 0.000000
vt 0.000000 1.000000
vt 0.000000 0.000000
vt 1.000000 0.000000
vt 0.000000 0.000000
vt 0.000000 1.000000
vt 1.000000 1.000000
vt 1.000000 1.000000
vt 1.000000 1.000000
vt 1.000000 1.000000
vt 1.000000 1.000000
vn -1.0000 0.0000 0.0000
vn 0.0000 0.0000 -1.0000
vn 1.0000 0.0000 0.0000
vn 0.0000 0.0000 1.0000
vn 0.0000 -1.0000 0.0000
vn 0.0000 1.0000 0.0000
usemtl Material.002
s off
f 6/1/1 1/2/1 5/3/1
f 7/4/2 2/5/2 6/6/2
f 8/7/3 3/8/3 7/9/3
f 5/10/4 4/11/4 8/12/4
f 2/13/5 4/11/5 1/14/5
f 7/4/6 5/15/6 8/12/6
f 6/1/1 2/16/1 1/2/1
f 7/4/2 3/17/2 2/5/2
f 8/7/3 4/18/3 3/8/3
f 5/10/4 1/19/4 4/11/4
f 2/13/5 3/17/5 4/11/5
f 7/4/6 6/20/6 5/15/6
