# 3ds Max Wavefront OBJ Exporter v0.97b - (c)2007 guruware
# File Created: 19.03.2012 14:24:23

mtllib 14319_Artik_Mirror-Black_v1_l1.mtl

#
# object Artik_Mirror_black__Artik_Mirror_black_
#

v  -32.2403 0.1063 -32.2403
v  32.2403 0.1063 -32.2403
v  32.2403 0.1063 32.2403
v  -32.2403 0.1063 32.2403
v  -39.1941 1.5286 39.1941
v  -39.1941 1.5287 -39.1941
v  -39.1941 -3.5286 -39.1941
v  -39.1941 -3.5287 39.1941
v  39.1941 1.5287 -39.1941
v  39.1941 -3.5286 -39.1941
v  39.1941 1.5286 39.1941
v  39.1941 -3.5287 39.1941
v  -34.1368 0.2643 -34.1368
v  -34.1368 0.2643 34.1368
v  34.1368 0.2643 -34.1368
v  34.1368 0.2643 34.1368
v  -34.1368 0.7384 -34.1368
v  -34.1368 0.7384 34.1368
v  34.1368 0.7384 -34.1368
v  34.1368 0.7384 34.1368
# 20 vertices

vn 0.0000 -1.0000 -0.0000
vn -1.0000 0.0000 0.0000
vn 0.0000 0.0000 -1.0000
vn 1.0000 0.0000 0.0000
vn 0.0000 -0.0000 1.0000
vn 0.6000 -0.8000 -0.0000
vn 0.0000 -0.8000 0.6000
vn -0.6000 -0.8000 -0.0000
vn 0.0000 -0.8000 -0.6000
vn -0.3162 -0.9487 -0.0000
vn 0.0000 -0.9487 -0.3162
vn 0.3162 -0.9487 -0.0000
vn 0.0000 -0.9487 0.3162
vn 0.0000 1.0000 0.0000
# 14 vertex normals

vt -12.2500 -12.2500 0.0625
vt 13.2500 -12.2500 0.0625
vt 13.2500 13.2500 0.0625
vt -12.2500 13.2500 0.0625
vt -15.0000 16.0000 -0.5000
vt -15.0000 -15.0000 -0.5000
vt -15.0000 -15.0000 1.5000
vt -15.0000 16.0000 1.5000
vt 16.0000 -15.0000 -0.5000
vt 16.0000 -15.0000 1.5000
vt 16.0000 16.0000 -0.5000
vt 16.0000 16.0000 1.5000
vt -13.0000 -13.0000 0.0000
vt -13.0000 14.0000 -0.0000
vt 14.0000 -13.0000 0.0000
vt 14.0000 14.0000 -0.0000
vt -13.0000 -13.0000 -0.1875
vt -13.0000 14.0000 -0.1875
vt 14.0000 -13.0000 -0.1875
vt 14.0000 14.0000 -0.1875
# 20 texture coords

g Artik_Mirror_black__Artik_Mirror_black_
usemtl Silver_mat
s 1
f 1/1/1 2/2/1 3/3/1 4/4/1 
usemtl Ebony_mat
s off
f 5/5/2 6/6/2 7/7/2 8/8/2 
f 6/6/3 9/9/3 10/10/3 7/7/3 
f 9/9/4 11/11/4 12/12/4 10/10/4 
f 11/11/5 5/5/5 8/8/5 12/12/5 
f 8/8/6 7/7/6 13/13/6 14/14/6 
f 7/7/7 10/10/7 15/15/7 13/13/7 
f 10/10/8 12/12/8 16/16/8 15/15/8 
f 12/12/9 8/8/9 14/14/9 16/16/9 
f 14/14/4 13/13/4 17/17/4 18/18/4 
f 13/13/5 15/15/5 19/19/5 17/17/5 
f 15/15/2 16/16/2 20/20/2 19/19/2 
f 16/16/3 14/14/3 18/18/3 20/20/3 
usemtl Silver_mat
f 18/18/10 17/17/10 1/1/10 4/4/10 
f 17/17/11 19/19/11 2/2/11 1/1/11 
f 19/19/12 20/20/12 3/3/12 2/2/12 
f 20/20/13 18/18/13 4/4/13 3/3/13 
usemtl Ebony_mat
f 11/11/14 9/9/14 6/6/14 5/5/14 
# 18 polygons

